<mxfile host="app.diagrams.net" modified="2023-05-20T08:32:26.571Z" agent="Mozilla/5.0 (Windows NT 10.0; Win64; x64) AppleWebKit/537.36 (KHTML, like Gecko) Chrome/110.0.0.0 YaBrowser/23.3.4.603 Yowser/2.5 Safari/537.36" etag="81dOHLiSqULhz1TQ87Sx" version="21.3.2" type="device">
  <diagram name="Страница 1" id="fQOGa6Li2JbaMAjDsdgf">
    <mxGraphModel dx="1400" dy="316" grid="0" gridSize="10" guides="0" tooltips="1" connect="1" arrows="1" fold="1" page="0" pageScale="1" pageWidth="827" pageHeight="1169" math="0" shadow="0">
      <root>
        <mxCell id="0" />
        <mxCell id="1" parent="0" />
        <mxCell id="RxmswUO9vklA4Q_MMJdy-19" style="rounded=0;orthogonalLoop=1;jettySize=auto;html=1;entryX=0;entryY=0.5;entryDx=0;entryDy=0;strokeWidth=3;" parent="1" source="RxmswUO9vklA4Q_MMJdy-1" target="RxmswUO9vklA4Q_MMJdy-2" edge="1">
          <mxGeometry relative="1" as="geometry">
            <Array as="points">
              <mxPoint x="-330" y="242" />
            </Array>
          </mxGeometry>
        </mxCell>
        <mxCell id="RxmswUO9vklA4Q_MMJdy-20" style="edgeStyle=orthogonalEdgeStyle;rounded=0;orthogonalLoop=1;jettySize=auto;html=1;entryX=0;entryY=0.5;entryDx=0;entryDy=0;dashed=1;exitX=1;exitY=0.5;exitDx=0;exitDy=0;" parent="1" source="RxmswUO9vklA4Q_MMJdy-2" target="RxmswUO9vklA4Q_MMJdy-4" edge="1">
          <mxGeometry relative="1" as="geometry" />
        </mxCell>
        <mxCell id="RxmswUO9vklA4Q_MMJdy-1" value="0" style="ellipse;whiteSpace=wrap;html=1;aspect=fixed;" parent="1" vertex="1">
          <mxGeometry x="-402" y="220" width="46" height="46" as="geometry" />
        </mxCell>
        <mxCell id="RxmswUO9vklA4Q_MMJdy-21" style="rounded=0;orthogonalLoop=1;jettySize=auto;html=1;entryX=0.064;entryY=0.699;entryDx=0;entryDy=0;entryPerimeter=0;strokeWidth=3;" parent="1" source="RxmswUO9vklA4Q_MMJdy-2" target="RxmswUO9vklA4Q_MMJdy-3" edge="1">
          <mxGeometry relative="1" as="geometry" />
        </mxCell>
        <mxCell id="RxmswUO9vklA4Q_MMJdy-2" value="1" style="ellipse;whiteSpace=wrap;html=1;aspect=fixed;" parent="1" vertex="1">
          <mxGeometry x="-297" y="219" width="46" height="46" as="geometry" />
        </mxCell>
        <mxCell id="RxmswUO9vklA4Q_MMJdy-22" style="rounded=0;orthogonalLoop=1;jettySize=auto;html=1;strokeWidth=3;" parent="1" source="RxmswUO9vklA4Q_MMJdy-3" target="RxmswUO9vklA4Q_MMJdy-4" edge="1">
          <mxGeometry relative="1" as="geometry" />
        </mxCell>
        <mxCell id="RxmswUO9vklA4Q_MMJdy-3" value="2" style="ellipse;whiteSpace=wrap;html=1;aspect=fixed;" parent="1" vertex="1">
          <mxGeometry x="-190" y="145" width="46" height="46" as="geometry" />
        </mxCell>
        <mxCell id="RxmswUO9vklA4Q_MMJdy-23" style="edgeStyle=orthogonalEdgeStyle;rounded=0;orthogonalLoop=1;jettySize=auto;html=1;strokeWidth=3;" parent="1" source="RxmswUO9vklA4Q_MMJdy-4" edge="1">
          <mxGeometry relative="1" as="geometry">
            <mxPoint x="-4" y="242" as="targetPoint" />
          </mxGeometry>
        </mxCell>
        <mxCell id="RxmswUO9vklA4Q_MMJdy-4" value="3" style="ellipse;whiteSpace=wrap;html=1;aspect=fixed;" parent="1" vertex="1">
          <mxGeometry x="-102" y="219" width="46" height="46" as="geometry" />
        </mxCell>
        <mxCell id="RxmswUO9vklA4Q_MMJdy-26" style="edgeStyle=orthogonalEdgeStyle;rounded=0;orthogonalLoop=1;jettySize=auto;html=1;strokeWidth=3;" parent="1" source="RxmswUO9vklA4Q_MMJdy-5" target="RxmswUO9vklA4Q_MMJdy-6" edge="1">
          <mxGeometry relative="1" as="geometry" />
        </mxCell>
        <mxCell id="RxmswUO9vklA4Q_MMJdy-5" value="4" style="ellipse;whiteSpace=wrap;html=1;aspect=fixed;" parent="1" vertex="1">
          <mxGeometry x="-4" y="219" width="46" height="46" as="geometry" />
        </mxCell>
        <mxCell id="RxmswUO9vklA4Q_MMJdy-27" style="edgeStyle=orthogonalEdgeStyle;rounded=0;orthogonalLoop=1;jettySize=auto;html=1;entryX=0;entryY=0.5;entryDx=0;entryDy=0;strokeWidth=3;" parent="1" source="RxmswUO9vklA4Q_MMJdy-6" target="RxmswUO9vklA4Q_MMJdy-7" edge="1">
          <mxGeometry relative="1" as="geometry" />
        </mxCell>
        <mxCell id="RxmswUO9vklA4Q_MMJdy-6" value="5" style="ellipse;whiteSpace=wrap;html=1;aspect=fixed;" parent="1" vertex="1">
          <mxGeometry x="87" y="219" width="46" height="46" as="geometry" />
        </mxCell>
        <mxCell id="RxmswUO9vklA4Q_MMJdy-28" style="edgeStyle=orthogonalEdgeStyle;rounded=0;orthogonalLoop=1;jettySize=auto;html=1;strokeWidth=3;" parent="1" source="RxmswUO9vklA4Q_MMJdy-7" target="RxmswUO9vklA4Q_MMJdy-8" edge="1">
          <mxGeometry relative="1" as="geometry" />
        </mxCell>
        <mxCell id="RxmswUO9vklA4Q_MMJdy-7" value="6" style="ellipse;whiteSpace=wrap;html=1;aspect=fixed;" parent="1" vertex="1">
          <mxGeometry x="180" y="219" width="46" height="46" as="geometry" />
        </mxCell>
        <mxCell id="RxmswUO9vklA4Q_MMJdy-29" style="edgeStyle=orthogonalEdgeStyle;rounded=0;orthogonalLoop=1;jettySize=auto;html=1;strokeWidth=3;" parent="1" source="RxmswUO9vklA4Q_MMJdy-8" target="RxmswUO9vklA4Q_MMJdy-9" edge="1">
          <mxGeometry relative="1" as="geometry" />
        </mxCell>
        <mxCell id="RxmswUO9vklA4Q_MMJdy-8" value="7" style="ellipse;whiteSpace=wrap;html=1;aspect=fixed;" parent="1" vertex="1">
          <mxGeometry x="268" y="219" width="46" height="46" as="geometry" />
        </mxCell>
        <mxCell id="RxmswUO9vklA4Q_MMJdy-30" style="rounded=0;orthogonalLoop=1;jettySize=auto;html=1;entryX=0;entryY=0.5;entryDx=0;entryDy=0;strokeWidth=3;" parent="1" source="RxmswUO9vklA4Q_MMJdy-9" target="RxmswUO9vklA4Q_MMJdy-10" edge="1">
          <mxGeometry relative="1" as="geometry" />
        </mxCell>
        <mxCell id="RxmswUO9vklA4Q_MMJdy-33" style="edgeStyle=orthogonalEdgeStyle;rounded=0;orthogonalLoop=1;jettySize=auto;html=1;entryX=0;entryY=0.5;entryDx=0;entryDy=0;jumpSize=0;dashed=1;" parent="1" source="RxmswUO9vklA4Q_MMJdy-9" target="RxmswUO9vklA4Q_MMJdy-12" edge="1">
          <mxGeometry relative="1" as="geometry" />
        </mxCell>
        <mxCell id="RxmswUO9vklA4Q_MMJdy-9" value="8" style="ellipse;whiteSpace=wrap;html=1;aspect=fixed;" parent="1" vertex="1">
          <mxGeometry x="365" y="219" width="46" height="46" as="geometry" />
        </mxCell>
        <mxCell id="RxmswUO9vklA4Q_MMJdy-31" style="edgeStyle=orthogonalEdgeStyle;rounded=0;orthogonalLoop=1;jettySize=auto;html=1;entryX=0;entryY=0.5;entryDx=0;entryDy=0;strokeWidth=3;" parent="1" source="RxmswUO9vklA4Q_MMJdy-10" target="RxmswUO9vklA4Q_MMJdy-11" edge="1">
          <mxGeometry relative="1" as="geometry" />
        </mxCell>
        <mxCell id="RxmswUO9vklA4Q_MMJdy-10" value="9" style="ellipse;whiteSpace=wrap;html=1;aspect=fixed;" parent="1" vertex="1">
          <mxGeometry x="452" y="148" width="46" height="46" as="geometry" />
        </mxCell>
        <mxCell id="RxmswUO9vklA4Q_MMJdy-32" style="rounded=0;orthogonalLoop=1;jettySize=auto;html=1;strokeWidth=3;" parent="1" source="RxmswUO9vklA4Q_MMJdy-11" target="RxmswUO9vklA4Q_MMJdy-12" edge="1">
          <mxGeometry relative="1" as="geometry" />
        </mxCell>
        <mxCell id="RxmswUO9vklA4Q_MMJdy-11" value="10" style="ellipse;whiteSpace=wrap;html=1;aspect=fixed;" parent="1" vertex="1">
          <mxGeometry x="550" y="148" width="46" height="46" as="geometry" />
        </mxCell>
        <mxCell id="RxmswUO9vklA4Q_MMJdy-34" style="edgeStyle=orthogonalEdgeStyle;rounded=0;orthogonalLoop=1;jettySize=auto;html=1;strokeWidth=3;" parent="1" source="RxmswUO9vklA4Q_MMJdy-12" target="RxmswUO9vklA4Q_MMJdy-13" edge="1">
          <mxGeometry relative="1" as="geometry" />
        </mxCell>
        <mxCell id="RxmswUO9vklA4Q_MMJdy-12" value="11" style="ellipse;whiteSpace=wrap;html=1;aspect=fixed;" parent="1" vertex="1">
          <mxGeometry x="618" y="218" width="46" height="46" as="geometry" />
        </mxCell>
        <mxCell id="RxmswUO9vklA4Q_MMJdy-35" style="edgeStyle=orthogonalEdgeStyle;rounded=0;orthogonalLoop=1;jettySize=auto;html=1;strokeWidth=3;" parent="1" source="RxmswUO9vklA4Q_MMJdy-13" target="RxmswUO9vklA4Q_MMJdy-14" edge="1">
          <mxGeometry relative="1" as="geometry" />
        </mxCell>
        <mxCell id="RxmswUO9vklA4Q_MMJdy-13" value="12" style="ellipse;whiteSpace=wrap;html=1;aspect=fixed;" parent="1" vertex="1">
          <mxGeometry x="726" y="218" width="46" height="46" as="geometry" />
        </mxCell>
        <mxCell id="RxmswUO9vklA4Q_MMJdy-36" style="edgeStyle=orthogonalEdgeStyle;rounded=0;orthogonalLoop=1;jettySize=auto;html=1;strokeWidth=3;" parent="1" source="RxmswUO9vklA4Q_MMJdy-14" target="RxmswUO9vklA4Q_MMJdy-15" edge="1">
          <mxGeometry relative="1" as="geometry" />
        </mxCell>
        <mxCell id="RxmswUO9vklA4Q_MMJdy-14" value="13" style="ellipse;whiteSpace=wrap;html=1;aspect=fixed;" parent="1" vertex="1">
          <mxGeometry x="822" y="218" width="46" height="46" as="geometry" />
        </mxCell>
        <mxCell id="RxmswUO9vklA4Q_MMJdy-38" style="edgeStyle=orthogonalEdgeStyle;rounded=0;orthogonalLoop=1;jettySize=auto;html=1;entryX=0;entryY=0.5;entryDx=0;entryDy=0;strokeWidth=3;" parent="1" source="RxmswUO9vklA4Q_MMJdy-15" target="RxmswUO9vklA4Q_MMJdy-16" edge="1">
          <mxGeometry relative="1" as="geometry" />
        </mxCell>
        <mxCell id="RxmswUO9vklA4Q_MMJdy-15" value="14" style="ellipse;whiteSpace=wrap;html=1;aspect=fixed;" parent="1" vertex="1">
          <mxGeometry x="917" y="218" width="46" height="46" as="geometry" />
        </mxCell>
        <mxCell id="RxmswUO9vklA4Q_MMJdy-41" style="edgeStyle=orthogonalEdgeStyle;rounded=0;orthogonalLoop=1;jettySize=auto;html=1;entryX=0;entryY=0.5;entryDx=0;entryDy=0;strokeWidth=3;" parent="1" source="RxmswUO9vklA4Q_MMJdy-16" target="RxmswUO9vklA4Q_MMJdy-17" edge="1">
          <mxGeometry relative="1" as="geometry" />
        </mxCell>
        <mxCell id="RxmswUO9vklA4Q_MMJdy-16" value="15" style="ellipse;whiteSpace=wrap;html=1;aspect=fixed;" parent="1" vertex="1">
          <mxGeometry x="1009" y="217" width="46" height="46" as="geometry" />
        </mxCell>
        <mxCell id="RxmswUO9vklA4Q_MMJdy-42" style="edgeStyle=orthogonalEdgeStyle;rounded=0;orthogonalLoop=1;jettySize=auto;html=1;strokeWidth=3;" parent="1" source="RxmswUO9vklA4Q_MMJdy-17" target="RxmswUO9vklA4Q_MMJdy-18" edge="1">
          <mxGeometry relative="1" as="geometry" />
        </mxCell>
        <mxCell id="RxmswUO9vklA4Q_MMJdy-17" value="16" style="ellipse;whiteSpace=wrap;html=1;aspect=fixed;" parent="1" vertex="1">
          <mxGeometry x="1103" y="217" width="46" height="46" as="geometry" />
        </mxCell>
        <mxCell id="RxmswUO9vklA4Q_MMJdy-18" value="17" style="ellipse;whiteSpace=wrap;html=1;aspect=fixed;" parent="1" vertex="1">
          <mxGeometry x="1198" y="217" width="46" height="46" as="geometry" />
        </mxCell>
        <mxCell id="RxmswUO9vklA4Q_MMJdy-43" value="Z1" style="text;html=1;strokeColor=none;fillColor=none;align=center;verticalAlign=middle;whiteSpace=wrap;rounded=0;" parent="1" vertex="1">
          <mxGeometry x="-348" y="221" width="49" height="14" as="geometry" />
        </mxCell>
        <mxCell id="RxmswUO9vklA4Q_MMJdy-44" value="Z2" style="text;html=1;strokeColor=none;fillColor=none;align=center;verticalAlign=middle;whiteSpace=wrap;rounded=0;" parent="1" vertex="1">
          <mxGeometry x="-250" y="185" width="30" height="19" as="geometry" />
        </mxCell>
        <mxCell id="RxmswUO9vklA4Q_MMJdy-45" value="Z3" style="text;html=1;strokeColor=none;fillColor=none;align=center;verticalAlign=middle;whiteSpace=wrap;rounded=0;" parent="1" vertex="1">
          <mxGeometry x="-126" y="186" width="33" height="15" as="geometry" />
        </mxCell>
        <mxCell id="RxmswUO9vklA4Q_MMJdy-46" value="Z4" style="text;html=1;strokeColor=none;fillColor=none;align=center;verticalAlign=middle;whiteSpace=wrap;rounded=0;" parent="1" vertex="1">
          <mxGeometry x="-200" y="216" width="52" height="16" as="geometry" />
        </mxCell>
        <mxCell id="RxmswUO9vklA4Q_MMJdy-50" value="Z5" style="text;html=1;strokeColor=none;fillColor=none;align=center;verticalAlign=middle;whiteSpace=wrap;rounded=0;" parent="1" vertex="1">
          <mxGeometry x="-52" y="218" width="52" height="16" as="geometry" />
        </mxCell>
        <mxCell id="RxmswUO9vklA4Q_MMJdy-51" value="Z6" style="text;html=1;strokeColor=none;fillColor=none;align=center;verticalAlign=middle;whiteSpace=wrap;rounded=0;" parent="1" vertex="1">
          <mxGeometry x="41" y="222" width="52" height="16" as="geometry" />
        </mxCell>
        <mxCell id="RxmswUO9vklA4Q_MMJdy-52" value="Z7" style="text;html=1;strokeColor=none;fillColor=none;align=center;verticalAlign=middle;whiteSpace=wrap;rounded=0;" parent="1" vertex="1">
          <mxGeometry x="131" y="217" width="52" height="16" as="geometry" />
        </mxCell>
        <mxCell id="RxmswUO9vklA4Q_MMJdy-53" value="Z8" style="text;html=1;strokeColor=none;fillColor=none;align=center;verticalAlign=middle;whiteSpace=wrap;rounded=0;" parent="1" vertex="1">
          <mxGeometry x="219" y="218" width="52" height="16" as="geometry" />
        </mxCell>
        <mxCell id="RxmswUO9vklA4Q_MMJdy-54" value="Z9" style="text;html=1;strokeColor=none;fillColor=none;align=center;verticalAlign=middle;whiteSpace=wrap;rounded=0;" parent="1" vertex="1">
          <mxGeometry x="315" y="221" width="52" height="16" as="geometry" />
        </mxCell>
        <mxCell id="RxmswUO9vklA4Q_MMJdy-55" value="Z10" style="text;html=1;strokeColor=none;fillColor=none;align=center;verticalAlign=middle;whiteSpace=wrap;rounded=0;" parent="1" vertex="1">
          <mxGeometry x="383" y="192" width="52" height="16" as="geometry" />
        </mxCell>
        <mxCell id="RxmswUO9vklA4Q_MMJdy-56" value="Z11" style="text;html=1;strokeColor=none;fillColor=none;align=center;verticalAlign=middle;whiteSpace=wrap;rounded=0;" parent="1" vertex="1">
          <mxGeometry x="500" y="147" width="52" height="16" as="geometry" />
        </mxCell>
        <mxCell id="RxmswUO9vklA4Q_MMJdy-65" value="Z12" style="text;html=1;strokeColor=none;fillColor=none;align=center;verticalAlign=middle;whiteSpace=wrap;rounded=0;" parent="1" vertex="1">
          <mxGeometry x="607" y="188" width="52" height="16" as="geometry" />
        </mxCell>
        <mxCell id="RxmswUO9vklA4Q_MMJdy-66" value="Z13" style="text;html=1;strokeColor=none;fillColor=none;align=center;verticalAlign=middle;whiteSpace=wrap;rounded=0;" parent="1" vertex="1">
          <mxGeometry x="665" y="221" width="52" height="16" as="geometry" />
        </mxCell>
        <mxCell id="RxmswUO9vklA4Q_MMJdy-67" value="Z14" style="text;html=1;strokeColor=none;fillColor=none;align=center;verticalAlign=middle;whiteSpace=wrap;rounded=0;" parent="1" vertex="1">
          <mxGeometry x="765" y="219" width="52" height="16" as="geometry" />
        </mxCell>
        <mxCell id="RxmswUO9vklA4Q_MMJdy-68" value="Z15" style="text;html=1;strokeColor=none;fillColor=none;align=center;verticalAlign=middle;whiteSpace=wrap;rounded=0;" parent="1" vertex="1">
          <mxGeometry x="860" y="217" width="52" height="16" as="geometry" />
        </mxCell>
        <mxCell id="RxmswUO9vklA4Q_MMJdy-69" value="Z16" style="text;html=1;strokeColor=none;fillColor=none;align=center;verticalAlign=middle;whiteSpace=wrap;rounded=0;" parent="1" vertex="1">
          <mxGeometry x="956" y="219" width="52" height="16" as="geometry" />
        </mxCell>
        <mxCell id="RxmswUO9vklA4Q_MMJdy-70" value="Z17" style="text;html=1;strokeColor=none;fillColor=none;align=center;verticalAlign=middle;whiteSpace=wrap;rounded=0;" parent="1" vertex="1">
          <mxGeometry x="1050" y="214" width="52" height="16" as="geometry" />
        </mxCell>
        <mxCell id="RxmswUO9vklA4Q_MMJdy-71" value="Z18" style="text;html=1;strokeColor=none;fillColor=none;align=center;verticalAlign=middle;whiteSpace=wrap;rounded=0;" parent="1" vertex="1">
          <mxGeometry x="1142" y="216" width="52" height="16" as="geometry" />
        </mxCell>
        <mxCell id="RxmswUO9vklA4Q_MMJdy-72" value="2" style="text;html=1;strokeColor=none;fillColor=none;align=center;verticalAlign=middle;whiteSpace=wrap;rounded=0;" parent="1" vertex="1">
          <mxGeometry x="-351" y="249" width="49" height="10" as="geometry" />
        </mxCell>
        <mxCell id="RxmswUO9vklA4Q_MMJdy-73" value="3" style="text;html=1;strokeColor=none;fillColor=none;align=center;verticalAlign=middle;whiteSpace=wrap;rounded=0;" parent="1" vertex="1">
          <mxGeometry x="-234" y="204" width="32" height="15" as="geometry" />
        </mxCell>
        <mxCell id="RxmswUO9vklA4Q_MMJdy-74" value="3" style="text;html=1;strokeColor=none;fillColor=none;align=center;verticalAlign=middle;whiteSpace=wrap;rounded=0;" parent="1" vertex="1">
          <mxGeometry x="-145" y="204" width="26" height="15" as="geometry" />
        </mxCell>
        <mxCell id="RxmswUO9vklA4Q_MMJdy-75" value="2" style="text;html=1;strokeColor=none;fillColor=none;align=center;verticalAlign=middle;whiteSpace=wrap;rounded=0;" parent="1" vertex="1">
          <mxGeometry x="-193" y="245" width="36" height="12" as="geometry" />
        </mxCell>
        <mxCell id="RxmswUO9vklA4Q_MMJdy-77" value="10" style="text;html=1;strokeColor=none;fillColor=none;align=center;verticalAlign=middle;whiteSpace=wrap;rounded=0;" parent="1" vertex="1">
          <mxGeometry x="-48" y="251" width="36" height="12" as="geometry" />
        </mxCell>
        <mxCell id="RxmswUO9vklA4Q_MMJdy-78" value="3" style="text;html=1;strokeColor=none;fillColor=none;align=center;verticalAlign=middle;whiteSpace=wrap;rounded=0;" parent="1" vertex="1">
          <mxGeometry x="46" y="250" width="36" height="12" as="geometry" />
        </mxCell>
        <mxCell id="RxmswUO9vklA4Q_MMJdy-79" value="5" style="text;html=1;strokeColor=none;fillColor=none;align=center;verticalAlign=middle;whiteSpace=wrap;rounded=0;" parent="1" vertex="1">
          <mxGeometry x="139" y="254" width="36" height="12" as="geometry" />
        </mxCell>
        <mxCell id="RxmswUO9vklA4Q_MMJdy-80" value="5" style="text;html=1;strokeColor=none;fillColor=none;align=center;verticalAlign=middle;whiteSpace=wrap;rounded=0;" parent="1" vertex="1">
          <mxGeometry x="227" y="254" width="36" height="12" as="geometry" />
        </mxCell>
        <mxCell id="RxmswUO9vklA4Q_MMJdy-81" value="10" style="text;html=1;strokeColor=none;fillColor=none;align=center;verticalAlign=middle;whiteSpace=wrap;rounded=0;" parent="1" vertex="1">
          <mxGeometry x="319" y="257" width="36" height="12" as="geometry" />
        </mxCell>
        <mxCell id="RxmswUO9vklA4Q_MMJdy-82" value="7" style="text;html=1;strokeColor=none;fillColor=none;align=center;verticalAlign=middle;whiteSpace=wrap;rounded=0;" parent="1" vertex="1">
          <mxGeometry x="424" y="208" width="36" height="12" as="geometry" />
        </mxCell>
        <mxCell id="RxmswUO9vklA4Q_MMJdy-84" value="2" style="text;html=1;strokeColor=none;fillColor=none;align=center;verticalAlign=middle;whiteSpace=wrap;rounded=0;" parent="1" vertex="1">
          <mxGeometry x="510" y="178" width="36" height="12" as="geometry" />
        </mxCell>
        <mxCell id="RxmswUO9vklA4Q_MMJdy-85" value="4" style="text;html=1;strokeColor=none;fillColor=none;align=center;verticalAlign=middle;whiteSpace=wrap;rounded=0;" parent="1" vertex="1">
          <mxGeometry x="585" y="206" width="36" height="12" as="geometry" />
        </mxCell>
        <mxCell id="xc8vd6BBGGYi0iVdmjUs-1" value="11" style="text;html=1;strokeColor=none;fillColor=none;align=center;verticalAlign=middle;whiteSpace=wrap;rounded=0;" vertex="1" parent="1">
          <mxGeometry x="677" y="247" width="36" height="12" as="geometry" />
        </mxCell>
        <mxCell id="xc8vd6BBGGYi0iVdmjUs-2" value="7" style="text;html=1;strokeColor=none;fillColor=none;align=center;verticalAlign=middle;whiteSpace=wrap;rounded=0;" vertex="1" parent="1">
          <mxGeometry x="777" y="247" width="36" height="12" as="geometry" />
        </mxCell>
        <mxCell id="xc8vd6BBGGYi0iVdmjUs-3" value="5" style="text;html=1;strokeColor=none;fillColor=none;align=center;verticalAlign=middle;whiteSpace=wrap;rounded=0;" vertex="1" parent="1">
          <mxGeometry x="872" y="249" width="36" height="12" as="geometry" />
        </mxCell>
        <mxCell id="xc8vd6BBGGYi0iVdmjUs-4" value="6" style="text;html=1;strokeColor=none;fillColor=none;align=center;verticalAlign=middle;whiteSpace=wrap;rounded=0;" vertex="1" parent="1">
          <mxGeometry x="971" y="249" width="36" height="15" as="geometry" />
        </mxCell>
        <mxCell id="xc8vd6BBGGYi0iVdmjUs-5" value="3" style="text;html=1;strokeColor=none;fillColor=none;align=center;verticalAlign=middle;whiteSpace=wrap;rounded=0;" vertex="1" parent="1">
          <mxGeometry x="1062" y="249" width="36" height="15" as="geometry" />
        </mxCell>
        <mxCell id="xc8vd6BBGGYi0iVdmjUs-6" value="2" style="text;html=1;strokeColor=none;fillColor=none;align=center;verticalAlign=middle;whiteSpace=wrap;rounded=0;" vertex="1" parent="1">
          <mxGeometry x="1153" y="245" width="36" height="15" as="geometry" />
        </mxCell>
      </root>
    </mxGraphModel>
  </diagram>
</mxfile>
